<svg xmlns="http://www.w3.org/2000/svg" width="42.034" height="37.47" viewBox="0 0 42.034 37.47">
  <g id="Group_1866" data-name="Group 1866" transform="translate(-11731.511 -3503.068)">
    <g id="Group_1865" data-name="Group 1865">
      <g id="Group_1863" data-name="Group 1863">
        <circle id="Ellipse_162" data-name="Ellipse 162" cx="3.251" cy="3.251" r="3.251" transform="translate(11766.529 3517.069)" stroke-width="2.028" stroke="#3269d1" stroke-linecap="round" stroke-linejoin="round" fill="none"/>
        <path id="Path_25046" data-name="Path 25046" d="M11769.771,3523.793a17.367,17.367,0,0,1-27.641,12.051" fill="none" stroke="#3269d1" stroke-linecap="round" stroke-linejoin="round" stroke-width="2.028"/>
        <path id="Path_25047" data-name="Path 25047" d="M11742.732,3540.024l-.954-4.453,4.239-.924" fill="none" stroke="#3269d1" stroke-linecap="round" stroke-linejoin="round" stroke-width="2.028"/>
        <line id="Line_63" data-name="Line 63" x2="0.047" y2="0.023" transform="translate(11738.364 3532.122)" fill="none" stroke="#3269d1" stroke-linecap="round" stroke-linejoin="round" stroke-width="2.028"/>
      </g>
      <g id="Group_1864" data-name="Group 1864">
        <circle id="Ellipse_163" data-name="Ellipse 163" cx="3.251" cy="3.251" r="3.251" transform="translate(11732.024 3520.254)" stroke-width="2.028" stroke="#3269d1" stroke-linecap="round" stroke-linejoin="round" fill="none"/>
        <path id="Path_25048" data-name="Path 25048" d="M11735.256,3520.032a17.368,17.368,0,0,1,27.542-12.276" fill="none" stroke="#3269d1" stroke-linecap="round" stroke-linejoin="round" stroke-width="2.028"/>
        <path id="Path_25049" data-name="Path 25049" d="M11762.162,3503.582l.991,4.445-4.232.958" fill="none" stroke="#3269d1" stroke-linecap="round" stroke-linejoin="round" stroke-width="2.028"/>
        <line id="Line_64" data-name="Line 64" x1="0.047" y1="0.023" transform="translate(11766.547 3511.426)" fill="none" stroke="#3269d1" stroke-linecap="round" stroke-linejoin="round" stroke-width="2.028"/>
      </g>
    </g>
    <path id="Path_25050" data-name="Path 25050" d="M11748.929,3516.867h10.843a.948.948,0,0,1,.947.947v2.14" fill="none" stroke="#3269d1" stroke-linecap="round" stroke-linejoin="round" stroke-width="2.028"/>
    <path id="Path_25051" data-name="Path 25051" d="M11760.719,3522.725v3.653a.948.948,0,0,1-.947.948l-2.024,0v1.788a.719.719,0,0,1-1.2.537l-2.619-2.325-8.114,0a.949.949,0,0,1-.948-.948v-6.951" fill="none" stroke="#3269d1" stroke-linecap="round" stroke-linejoin="round" stroke-width="1.034"/>
    <circle id="Ellipse_164" data-name="Ellipse 164" cx="2.631" cy="2.631" r="2.631" transform="translate(11743.299 3514.25)" stroke-width="2.028" stroke="#3269d1" stroke-linecap="round" stroke-linejoin="round" fill="none"/>
    <line id="Line_65" data-name="Line 65" x2="1.941" transform="translate(11755.095 3520.024)" fill="none" stroke="#3269d1" stroke-linecap="round" stroke-linejoin="round" stroke-width="2.028"/>
    <line id="Line_66" data-name="Line 66" y2="1.032" transform="translate(11745.941 3516.328)" fill="none" stroke="#3269d1" stroke-linecap="round" stroke-linejoin="round" stroke-width="2.028"/>
    <line id="Line_67" data-name="Line 67" x2="8.617" transform="translate(11748.418 3522.458)" fill="none" stroke="#3269d1" stroke-linecap="round" stroke-linejoin="round" stroke-width="2.028"/>
    <line id="Line_68" data-name="Line 68" x2="8.617" transform="translate(11748.418 3524.53)" fill="none" stroke="#3269d1" stroke-linecap="round" stroke-linejoin="round" stroke-width="2.028"/>
  </g>
</svg>
