<?xml version="1.0" encoding="utf-8"?>
<!-- Generator: Adobe Illustrator 22.0.1, SVG Export Plug-In . SVG Version: 6.00 Build 0)  -->
<svg version="1.1" id="Layer_1" xmlns="http://www.w3.org/2000/svg" xmlns:xlink="http://www.w3.org/1999/xlink" x="0px" y="0px"
	 viewBox="0 0 23.3 22.5" style="enable-background:new 0 0 23.3 22.5;" xml:space="preserve">
<style type="text/css">
	.st0{fill:#FFFFFF;}
	.st1{opacity:0.3;}
	.st2{fill:#EB000E;}
	.st3{fill:#F89F00;}
	.st4{fill:#FF5D00;}
</style>
<title>Visa Icon</title>
<g id="Layer_2_1_">
	<g id="Layer_1-2">
		<g id="ef89sn.tif">
			<path class="st0" d="M23.3,8.4h-1.8l-0.2-1.1h-2.3c-0.1,0-0.2,0-0.2,0.1c-0.1,0.3-0.2,0.6-0.3,0.9c0,0-0.1,0.1-0.1,0.1h-1.9
				l0.1-0.2l2.7-6.5c0.1-0.4,0.5-0.6,0.9-0.6h1.5c0.1,0,0.1,0,0.1,0.1c0,0,0,0,0,0l1.5,7L23.3,8.4L23.3,8.4z M21,5.8l-0.6-2.7l0,0
				l-1,2.7H21z"/>
			<path class="st0" d="M0,1.3V1.1h3.2c0.5,0,0.9,0.3,0.9,0.8C4.4,3.3,4.6,4.6,4.9,6c0,0,0,0,0,0L5,5.9c0.6-1.5,1.2-3.1,1.8-4.7
				c0-0.1,0.1-0.1,0.2-0.1h1.8L8.8,1.3l-2.9,7c0,0.1-0.1,0.1-0.2,0.1H3.9c-0.1,0-0.1,0-0.2-0.1c-0.5-1.9-1-3.8-1.5-5.8
				C2.2,2.2,2,2,1.8,1.9C1.2,1.6,0.7,1.5,0,1.3L0,1.3z"/>
			<path class="st0" d="M11.3,8.1l0.3-1.6c0.2,0.1,0.4,0.2,0.6,0.3C12.8,7,13.4,7,13.9,6.9c0.2,0,0.4-0.1,0.5-0.2
				c0.2-0.2,0.3-0.5,0.1-0.7c0,0-0.1-0.1-0.1-0.1c-0.2-0.2-0.4-0.3-0.7-0.5c-0.3-0.2-0.7-0.4-1-0.6c-0.8-0.6-1-1.7-0.4-2.6
				c0,0,0.1-0.1,0.1-0.1c0.4-0.5,1-0.9,1.6-1C15,0.9,16,0.9,16.9,1.3H17l-0.3,1.5c-0.1,0-0.3-0.1-0.4-0.1c-0.5-0.2-1-0.2-1.5-0.1
				c-0.2,0-0.3,0.1-0.5,0.2c-0.2,0.1-0.3,0.4-0.2,0.6c0,0.1,0.1,0.1,0.2,0.2c0.2,0.2,0.5,0.3,0.7,0.5c0.3,0.2,0.7,0.4,1,0.6
				c0.6,0.5,0.9,1.3,0.7,2C16.4,7.3,15.8,8,15,8.2c-0.7,0.2-1.4,0.3-2.1,0.2c-0.5,0-0.9-0.1-1.4-0.3L11.3,8.1z"/>
			<path class="st0" d="M11.5,1.1c-0.1,0.3-0.1,0.6-0.2,1L10,8.2c0,0.1-0.1,0.2-0.2,0.2H8.1C8.2,8.2,8.2,8,8.2,7.8
				C8.6,6,9,4.1,9.4,2.3c0.1-0.4,0.1-0.7,0.2-1.1c0,0,0.1-0.1,0.1-0.1L11.5,1.1z"/>
		</g>
		<g class="st1">
			<path class="st2" d="M10,15.7c0-1.7,0.8-3.4,2.1-4.4c-2.5-2-6.1-1.6-8.1,0.8s-1.6,6.1,0.8,8.1c2.1,1.7,5.1,1.7,7.2,0
				C10.8,19.1,10,17.5,10,15.7z"/>
			<path class="st3" d="M15.7,10c-1.3,0-2.6,0.5-3.6,1.3c2.5,2,2.8,5.6,0.8,8.1c-0.3,0.3-0.5,0.6-0.8,0.8c2.5,2,6.1,1.6,8.1-0.8
				s1.6-6.1-0.8-8.1C18.3,10.4,17,10,15.7,10z"/>
			<ellipse class="st4" cx="12.1" cy="15.7" rx="2.1" ry="4.5"/>
		</g>
	</g>
</g>
</svg>
